<svg width="80" height="80" xmlns="http://www.w3.org/2000/svg">
  <!-- Engranaje bueno -->
  <defs>
    <radialGradient id="metalGradient" cx="50%" cy="30%" r="70%">
      <stop offset="0%" stop-color="#E8E8E8"/>
      <stop offset="50%" stop-color="#C0C0C0"/>
      <stop offset="100%" stop-color="#A0A0A0"/>
    </radialGradient>
  </defs>
  
  <!-- Sombra -->
  <ellipse cx="42" cy="75" rx="25" ry="4" fill="#000000" opacity="0.2"/>
  
  <!-- Cuerpo principal del engranaje -->
  <circle cx="40" cy="40" r="28" fill="url(#metalGradient)" stroke="#808080" stroke-width="1.5"/>
  
  <!-- Dientes del engranaje -->
  <g stroke="#808080" stroke-width="1" fill="url(#metalGradient)">
    <rect x="38" y="10" width="4" height="8" rx="1"/>
    <rect x="55" y="15" width="8" height="4" rx="1" transform="rotate(45 59 17)"/>
    <rect x="65" y="38" width="8" height="4" rx="1"/>
    <rect x="55" y="61" width="8" height="4" rx="1" transform="rotate(-45 59 63)"/>
    <rect x="38" y="70" width="4" height="8" rx="1"/>
    <rect x="17" y="61" width="8" height="4" rx="1" transform="rotate(45 21 63)"/>
    <rect x="7" y="38" width="8" height="4" rx="1"/>
    <rect x="17" y="15" width="8" height="4" rx="1" transform="rotate(-45 21 17)"/>
  </g>
  
  <!-- Agujero central -->
  <circle cx="40" cy="40" r="8" fill="#606060" stroke="#404040" stroke-width="1"/>
  
  <!-- Brillo metálico -->
  <ellipse cx="35" cy="32" rx="8" ry="12" fill="#FFFFFF" opacity="0.3"/>
  
  <!-- Pequeños detalles -->
  <circle cx="40" cy="40" r="3" fill="#404040"/>
</svg>